<svg xmlns="http://www.w3.org/2000/svg" viewBox="0 0 512 512" width="48" height="48" fill="#FFFFFF">
  <path d="M364.6 347.1c-2.9 0-5.8-.8-8.4-2.4-53.6-32.1-120.9-39.4-199.2-21.8-8.6 1.9-17.2-3.5-19.1-12.1s3.5-17.2 12.1-19.1c86.5-19.5 161.9-11.1 222.4 24.7 7.6 4.6 10 14.6 5.4 22.2-3 5-8.3 7.8-13.2 7.8zM380.9 295.2c-3.2 0-6.4-.9-9.3-2.7-59.3-36.2-149.2-46.8-217.6-25.9-9 2.8-18.6-2.3-21.3-11.4s2.3-18.6 11.4-21.3c77.9-23.6 176.5-12.1 243.5 28.7 8 4.9 10.6 15.3 5.7 23.3-3.2 5.3-8.8 8.3-14.4 8.3zM396.4 241.9c-3.5 0-7-1-10.1-3.1-64.7-41.2-182.7-44.9-255.3-25.4-9.4 2.5-19.2-3-21.7-12.4s3-19.2 12.4-21.7c82.3-22.1 209.6-18.1 283.9 29 8.4 5.4 10.8 16.5 5.4 24.9-3.5 5.3-9.2 8.7-14.6 8.7z"></path>
</svg>
