<svg width="1760" height="1760" xmlns="http://www.w3.org/2000/svg" xmlns:xlink="http://www.w3.org/1999/xlink" overflow="hidden"><defs><clipPath id="clip0"><rect x="2468" y="-1760" width="1760" height="1760"/></clipPath></defs><g clip-path="url(#clip0)" transform="translate(-2468 1760)"><path d="M4228-880C4228-393.99 3834.01 0 3348 0 2861.99 0 2468-393.99 2468-880 2468-1366.01 2861.99-1760 3348-1760 3834.01-1760 4228-1366.01 4228-880Z" fill="#FFFFFF" fill-rule="evenodd"/><path d="M3721.6-567C3711.63-567 3701.66-569.748 3692.73-575.245 3508.49-685.527 3277.16-710.607 3008.03-650.141 2978.47-643.613 2948.91-662.165 2942.38-691.711 2935.85-721.257 2954.41-750.803 2983.97-757.331 3281.29-824.325 3540.46-795.466 3748.41-672.472 3774.53-656.668 3782.78-622.312 3766.97-596.202 3756.66-579.024 3738.44-569.405 3721.6-569.405ZM3777.63-745.306C3766.63-745.306 3755.63-748.399 3745.66-754.583 3541.83-878.951 3232.82-915.368 2997.72-843.564 2966.78-833.944 2933.78-851.466 2924.5-882.73 2915.22-913.994 2932.41-946.631 2963.69-955.908 3231.45-1036.99 3570.36-997.478 3800.66-857.306 3828.16-840.472 3837.09-804.742 3820.25-777.257 3809.25-759.049 3790-748.742 3770.75-748.742ZM3830.91-928.423C3818.88-928.423 3806.84-931.859 3796.19-939.073 3573.8-1080.62 3168.2-1093.33 2918.66-1026.34 2886.35-1017.75 2852.66-1036.64 2844.07-1068.94 2835.48-1101.23 2854.38-1134.9 2886.69-1143.49 3169.58-1219.42 3607.14-1205.67 3862.53-1043.86 3891.4-1025.31 3899.65-987.171 3881.09-958.312 3869.06-940.104 3849.47-928.423 3830.91-928.423Z" fill="#2274C6" fill-rule="evenodd"/></g></svg>